<svg width="170" height="35" viewBox="0 0 170 35" fill="none" xmlns="http://www.w3.org/2000/svg">
<path d="M1.59624 28V6.90909H15.9933V11.049H6.69389V15.3743H15.0767V19.5245H6.69389V28H1.59624ZM31.3197 6.90909H36.407V20.5131C36.407 22.0853 36.0329 23.455 35.2845 24.6222C34.5362 25.7824 33.4926 26.6818 32.1539 27.3203C30.8151 27.9519 29.26 28.2678 27.4887 28.2678C25.6968 28.2678 24.1315 27.9519 22.7927 27.3203C21.4539 26.6818 20.4138 25.7824 19.6723 24.6222C18.9308 23.455 18.5601 22.0853 18.5601 20.5131V6.90909H23.6578V20.0703C23.6578 20.7981 23.8157 21.4469 24.1315 22.0167C24.4542 22.5865 24.9039 23.0328 25.4806 23.3555C26.0573 23.6781 26.7267 23.8395 27.4887 23.8395C28.2508 23.8395 28.9168 23.6781 29.4866 23.3555C30.0633 23.0328 30.513 22.5865 30.8357 22.0167C31.1584 21.4469 31.3197 20.7981 31.3197 20.0703V6.90909ZM47.3979 28H39.6021V6.90909H47.3876C49.5365 6.90909 51.3868 7.33132 52.9384 8.17578C54.4969 9.01338 55.6983 10.2217 56.5428 11.8008C57.3873 13.373 57.8095 15.2541 57.8095 17.4442C57.8095 19.6412 57.3873 21.5292 56.5428 23.1083C55.7052 24.6874 54.5072 25.8991 52.9487 26.7436C51.3902 27.5812 49.54 28 47.3979 28ZM44.6998 23.6541H47.2022C48.3831 23.6541 49.382 23.455 50.199 23.0568C51.0229 22.6518 51.6442 21.9961 52.063 21.0898C52.4887 20.1767 52.7015 18.9615 52.7015 17.4442C52.7015 15.927 52.4887 14.7186 52.063 13.8192C51.6374 12.913 51.0092 12.2608 50.1784 11.8626C49.3546 11.4575 48.3385 11.255 47.1301 11.255H44.6998V23.6541ZM74.6266 13.7987C74.5099 13.3661 74.3382 12.9851 74.1117 12.6555C73.8851 12.3191 73.6071 12.0342 73.2775 11.8008C72.948 11.5674 72.5704 11.3923 72.1447 11.2756C71.719 11.152 71.2522 11.0902 70.7441 11.0902C69.7212 11.0902 68.8355 11.3374 68.0872 11.8317C67.3457 12.326 66.7724 13.0469 66.3674 13.9943C65.9623 14.9349 65.7598 16.078 65.7598 17.4237C65.7598 18.7762 65.9554 19.9296 66.3468 20.8839C66.7381 21.8382 67.3045 22.5659 68.046 23.0671C68.7875 23.5683 69.6868 23.8189 70.7441 23.8189C71.6779 23.8189 72.4674 23.6679 73.1127 23.3658C73.765 23.0568 74.2593 22.6209 74.5957 22.0579C74.9321 21.4949 75.1003 20.8324 75.1003 20.0703L76.0478 20.1836H70.9192V16.4659H80.0126V19.2567C80.0126 21.1448 79.611 22.7616 78.8077 24.1072C78.0113 25.4529 76.9128 26.4862 75.5123 27.207C74.1185 27.9279 72.5154 28.2884 70.7029 28.2884C68.6913 28.2884 66.9235 27.8524 65.3993 26.9805C63.8752 26.1085 62.6874 24.8659 61.8361 23.2525C60.9848 21.6322 60.5591 19.7099 60.5591 17.4854C60.5591 15.7553 60.8166 14.2209 61.3315 12.8821C61.8464 11.5365 62.5639 10.3968 63.4838 9.46307C64.4107 8.52936 65.4817 7.82221 66.6969 7.34162C67.919 6.86103 69.2337 6.62074 70.6412 6.62074C71.8632 6.62074 72.9995 6.79581 74.0499 7.14595C75.1072 7.49609 76.0409 7.99041 76.851 8.62891C77.668 9.2674 78.3306 10.026 78.8386 10.9048C79.3467 11.7836 79.6625 12.7482 79.786 13.7987H74.6266ZM83.0171 28V6.90909H97.7231V11.049H88.1148V15.3743H96.9713V19.5245H88.1148V23.8601H97.7231V28H83.0171ZM105.972 28L99.8343 6.90909H105.467L108.65 20.7294H108.825L112.46 6.90909H117.053L120.688 20.7603H120.863L124.056 6.90909H129.679L123.551 28H118.639L114.839 15.2095H114.674L110.874 28H105.972ZM134.053 28H128.574L135.69 6.90909H142.477L149.593 28H144.114L139.161 12.223H138.996L134.053 28ZM133.322 19.6996H144.773V23.5717H133.322V19.6996ZM153.82 6.90909L158.537 22.3565H158.712L163.429 6.90909H169.134L162.018 28H155.231L148.115 6.90909H153.82Z" fill="white"/>
</svg>
