<svg xmlns="http://www.w3.org/2000/svg" height="48" width="48"><path d="M14.45 43.85q-1.45 0-2.475-1.05-1.025-1.05-1.025-2.5t1.025-2.475Q13 36.8 14.45 36.8q1.45 0 2.5 1.025T18 40.3q0 1.45-1.05 2.5t-2.5 1.05Zm19.75 0q-1.45 0-2.475-1.05-1.025-1.05-1.025-2.5t1.025-2.475Q32.75 36.8 34.25 36.8q1.45 0 2.475 1.025Q37.75 38.85 37.75 40.3q0 1.45-1.025 2.5T34.2 43.85ZM10.45 7.95H39.2q1.3 0 1.975 1.175T41.2 11.5l-6.45 11.6q-.55.95-1.45 1.55-.9.6-2 .6H16.4l-2.75 5.1H37.9v3.15H13.95q-2.2 0-3.125-1.425Q9.9 30.65 10.9 28.9l3.15-5.8L6.6 7.2H2.65V4.05H8.6Z"/></svg>